<svg width="19" height="19" viewBox="0 0 19 19" fill="none" xmlns="http://www.w3.org/2000/svg">
<g clip-path="url(#clip0_1_233)">
<path d="M14.8748 2.4635H14.1043V0.922379H12.5632V2.4635H6.39869V0.922379H4.85758V2.4635H4.08702C3.2394 2.4635 2.5459 3.157 2.5459 4.00462V14.7924C2.5459 15.6401 3.2394 16.3336 4.08702 16.3336H14.8748C15.7225 16.3336 16.416 15.6401 16.416 14.7924V4.00462C16.416 3.157 15.7225 2.4635 14.8748 2.4635ZM14.8748 14.7924H4.08702V7.08685H14.8748V14.7924ZM4.08702 5.54573V4.00462H14.8748V5.54573H4.08702ZM8.37133 13.6058L12.9407 9.03637L12.1239 8.21957L8.37133 11.9722L6.74545 10.3463L5.92865 11.1631L8.37133 13.6058Z" fill="white"/>
</g>
<defs>
<clipPath id="clip0_1_233">
<rect width="18.4934" height="18.4934" fill="white" transform="translate(0.234375 0.151657)"/>
</clipPath>
</defs>
</svg>
