<svg width="19" height="19" viewBox="0 0 19 19" fill="none" xmlns="http://www.w3.org/2000/svg">
<g clip-path="url(#clip0_231_31)">
<path d="M14.8748 2.46348H14.1043V0.922363H12.5632V2.46348H6.39869V0.922363H4.85758V2.46348H4.08702C3.2394 2.46348 2.5459 3.15698 2.5459 4.0046V14.7924C2.5459 15.64 3.2394 16.3335 4.08702 16.3335H14.8748C15.7225 16.3335 16.416 15.64 16.416 14.7924V4.0046C16.416 3.15698 15.7225 2.46348 14.8748 2.46348ZM14.8748 14.7924H4.08702V7.08684H14.8748V14.7924ZM4.08702 5.54572V4.0046H14.8748V5.54572H4.08702ZM8.37133 13.6058L12.9407 9.03635L12.1239 8.21956L8.37133 11.9722L6.74545 10.3463L5.92865 11.1631L8.37133 13.6058Z" fill="#1A1A1A"/>
</g>
<defs>
<clipPath id="clip0_231_31">
<rect width="18.4934" height="18.4934" fill="white" transform="translate(0.234375 0.151611)"/>
</clipPath>
</defs>
</svg>
