<svg width="19" height="20" viewBox="0 0 19 20" fill="none" xmlns="http://www.w3.org/2000/svg">
<path d="M14.8749 11.3636V5.19908C14.8749 4.35146 14.1814 3.65796 13.3338 3.65796H2.546C1.69839 3.65796 1.00488 4.35146 1.00488 5.19908V11.3636C1.00488 12.2112 1.69839 12.9047 2.546 12.9047H13.3338C14.1814 12.9047 14.8749 12.2112 14.8749 11.3636ZM13.3338 11.3636H2.546V5.19908H13.3338V11.3636ZM7.93992 5.96964C6.66079 5.96964 5.62824 7.00219 5.62824 8.28131C5.62824 9.56044 6.66079 10.593 7.93992 10.593C9.21904 10.593 10.2516 9.56044 10.2516 8.28131C10.2516 7.00219 9.21904 5.96964 7.93992 5.96964ZM17.9572 5.96964V14.4458C17.9572 15.2934 17.2637 15.9869 16.4161 15.9869H3.31656C3.31656 15.2163 3.31656 15.2934 3.31656 14.4458H16.4161V5.96964C17.2637 5.96964 17.1866 5.96964 17.9572 5.96964Z" fill="#1A1A1A"/>
</svg>
