<svg width="19" height="20" viewBox="0 0 19 20" fill="none" xmlns="http://www.w3.org/2000/svg">
<g clip-path="url(#clip0_1_287)">
<path d="M15.2062 10.6124C15.237 10.3658 15.2601 10.1193 15.2601 9.85726C15.2601 9.59527 15.237 9.3487 15.2062 9.10212L16.832 7.83069C16.9785 7.71511 17.017 7.50706 16.9245 7.33754L15.3834 4.6714C15.314 4.54811 15.1831 4.47876 15.0443 4.47876C14.9981 4.47876 14.9519 4.48647 14.9134 4.50188L12.9947 5.27244C12.594 4.96421 12.1625 4.70993 11.6924 4.51729L11.3996 2.47531C11.3765 2.29037 11.2147 2.15167 11.022 2.15167H7.93979C7.74715 2.15167 7.58534 2.29037 7.56222 2.47531L7.26941 4.51729C6.79937 4.70993 6.36785 4.97192 5.96716 5.27244L4.04847 4.50188C4.00224 4.48647 3.956 4.47876 3.90977 4.47876C3.77877 4.47876 3.64778 4.54811 3.57843 4.6714L2.03731 7.33754C1.93714 7.50706 1.98337 7.71511 2.12978 7.83069L3.75566 9.10212C3.72484 9.3487 3.70172 9.60298 3.70172 9.85726C3.70172 10.1115 3.72484 10.3658 3.75566 10.6124L2.12978 11.8838C1.98337 11.9994 1.94484 12.2075 2.03731 12.377L3.57843 15.0431C3.64778 15.1664 3.77877 15.2358 3.91748 15.2358C3.96371 15.2358 4.00994 15.2281 4.04847 15.2127L5.96716 14.4421C6.36785 14.7503 6.79937 15.0046 7.26941 15.1972L7.56222 17.2392C7.58534 17.4242 7.74715 17.5629 7.93979 17.5629H11.022C11.2147 17.5629 11.3765 17.4242 11.3996 17.2392L11.6924 15.1972C12.1625 15.0046 12.594 14.7426 12.9947 14.4421L14.9134 15.2127C14.9596 15.2281 15.0058 15.2358 15.0521 15.2358C15.1831 15.2358 15.314 15.1664 15.3834 15.0431L16.9245 12.377C17.017 12.2075 16.9785 11.9994 16.832 11.8838L15.2062 10.6124ZM13.6805 9.29476C13.7113 9.53363 13.719 9.69545 13.719 9.85726C13.719 10.0191 13.7036 10.1886 13.6805 10.4198L13.5726 11.2905L14.2584 11.8299L15.0906 12.4772L14.5512 13.4095L13.5726 13.0166L12.7712 12.6929L12.0777 13.2169C11.7464 13.4635 11.4304 13.6484 11.1145 13.7794L10.2977 14.1108L10.1744 14.9815L10.0203 16.0217H8.94152L8.79511 14.9815L8.67183 14.1108L7.85503 13.7794C7.52369 13.6407 7.21547 13.4635 6.90724 13.2323L6.20604 12.6929L5.38924 13.0243L4.41063 13.4172L3.87124 12.4849L4.70345 11.8376L5.38924 11.2982L5.28137 10.4275C5.25825 10.1886 5.24284 10.0114 5.24284 9.85726C5.24284 9.70315 5.25825 9.52592 5.28137 9.29476L5.38924 8.42402L4.70345 7.88463L3.87124 7.23736L4.41063 6.30499L5.38924 6.69797L6.19062 7.02161L6.88413 6.49763C7.21547 6.25105 7.5314 6.06611 7.84733 5.93512L8.66412 5.60378L8.78741 4.73305L8.94152 3.69279H10.0126L10.159 4.73305L10.2823 5.60378L11.0991 5.93512C11.4304 6.07382 11.7387 6.25105 12.0469 6.48221L12.7481 7.02161L13.5649 6.69027L14.5435 6.29728L15.0829 7.22966L14.2584 7.88463L13.5726 8.42402L13.6805 9.29476ZM9.48091 6.77503C7.77798 6.77503 6.39868 8.15433 6.39868 9.85726C6.39868 11.5602 7.77798 12.9395 9.48091 12.9395C11.1838 12.9395 12.5631 11.5602 12.5631 9.85726C12.5631 8.15433 11.1838 6.77503 9.48091 6.77503ZM9.48091 11.3984C8.6333 11.3984 7.93979 10.7049 7.93979 9.85726C7.93979 9.00965 8.6333 8.31615 9.48091 8.31615C10.3285 8.31615 11.022 9.00965 11.022 9.85726C11.022 10.7049 10.3285 11.3984 9.48091 11.3984Z" fill="white"/>
</g>
<defs>
<clipPath id="clip0_1_287">
<rect width="18.4934" height="18.4934" fill="white" transform="translate(0.234375 0.610474)"/>
</clipPath>
</defs>
</svg>
