<svg width="19" height="20" viewBox="0 0 19 20" fill="none" xmlns="http://www.w3.org/2000/svg">
<g clip-path="url(#clip0_231_36)">
<path d="M15.2062 10.6124C15.237 10.3658 15.2601 10.1192 15.2601 9.8572C15.2601 9.59521 15.237 9.34863 15.2062 9.10206L16.832 7.83063C16.9785 7.71505 17.017 7.507 16.9245 7.33747L15.3834 4.67134C15.314 4.54805 15.1831 4.4787 15.0443 4.4787C14.9981 4.4787 14.9519 4.48641 14.9134 4.50182L12.9947 5.27238C12.594 4.96415 12.1625 4.70987 11.6924 4.51723L11.3996 2.47525C11.3765 2.29031 11.2147 2.15161 11.022 2.15161H7.93979C7.74715 2.15161 7.58534 2.29031 7.56222 2.47525L7.26941 4.51723C6.79937 4.70987 6.36785 4.97186 5.96716 5.27238L4.04847 4.50182C4.00224 4.48641 3.956 4.4787 3.90977 4.4787C3.77877 4.4787 3.64778 4.54805 3.57843 4.67134L2.03731 7.33747C1.93714 7.507 1.98337 7.71505 2.12978 7.83063L3.75566 9.10206C3.72484 9.34863 3.70172 9.60292 3.70172 9.8572C3.70172 10.1115 3.72484 10.3658 3.75566 10.6124L2.12978 11.8838C1.98337 11.9994 1.94484 12.2074 2.03731 12.3769L3.57843 15.0431C3.64778 15.1664 3.77877 15.2357 3.91748 15.2357C3.96371 15.2357 4.00994 15.228 4.04847 15.2126L5.96716 14.442C6.36785 14.7503 6.79937 15.0045 7.26941 15.1972L7.56222 17.2392C7.58534 17.4241 7.74715 17.5628 7.93979 17.5628H11.022C11.2147 17.5628 11.3765 17.4241 11.3996 17.2392L11.6924 15.1972C12.1625 15.0045 12.594 14.7425 12.9947 14.442L14.9134 15.2126C14.9596 15.228 15.0058 15.2357 15.0521 15.2357C15.1831 15.2357 15.314 15.1664 15.3834 15.0431L16.9245 12.3769C17.017 12.2074 16.9785 11.9994 16.832 11.8838L15.2062 10.6124ZM13.6805 9.2947C13.7113 9.53357 13.719 9.69539 13.719 9.8572C13.719 10.019 13.7036 10.1885 13.6805 10.4197L13.5726 11.2904L14.2584 11.8298L15.0906 12.4771L14.5512 13.4095L13.5726 13.0165L12.7712 12.6929L12.0777 13.2168C11.7464 13.4634 11.4304 13.6484 11.1145 13.7793L10.2977 14.1107L10.1744 14.9814L10.0203 16.0217H8.94152L8.79511 14.9814L8.67183 14.1107L7.85503 13.7793C7.52369 13.6406 7.21547 13.4634 6.90724 13.2323L6.20604 12.6929L5.38924 13.0242L4.41063 13.4172L3.87124 12.4848L4.70345 11.8375L5.38924 11.2981L5.28137 10.4274C5.25825 10.1885 5.24284 10.0113 5.24284 9.8572C5.24284 9.70309 5.25825 9.52586 5.28137 9.2947L5.38924 8.42396L4.70345 7.88457L3.87124 7.2373L4.41063 6.30493L5.38924 6.69791L6.19062 7.02155L6.88413 6.49757C7.21547 6.25099 7.5314 6.06605 7.84733 5.93506L8.66412 5.60372L8.78741 4.73298L8.94152 3.69273H10.0126L10.159 4.73298L10.2823 5.60372L11.0991 5.93506C11.4304 6.07376 11.7387 6.25099 12.0469 6.48215L12.7481 7.02155L13.5649 6.69021L14.5435 6.29722L15.0829 7.2296L14.2584 7.88457L13.5726 8.42396L13.6805 9.2947ZM9.48091 6.77497C7.77798 6.77497 6.39868 8.15427 6.39868 9.8572C6.39868 11.5601 7.77798 12.9394 9.48091 12.9394C11.1838 12.9394 12.5631 11.5601 12.5631 9.8572C12.5631 8.15427 11.1838 6.77497 9.48091 6.77497ZM9.48091 11.3983C8.6333 11.3983 7.93979 10.7048 7.93979 9.8572C7.93979 9.00959 8.6333 8.31608 9.48091 8.31608C10.3285 8.31608 11.022 9.00959 11.022 9.8572C11.022 10.7048 10.3285 11.3983 9.48091 11.3983Z" fill="#1A1A1A"/>
</g>
<defs>
<clipPath id="clip0_231_36">
<rect width="18.4934" height="18.4934" fill="white" transform="translate(0.234375 0.610352)"/>
</clipPath>
</defs>
</svg>
