<svg width="19" height="19" viewBox="0 0 19 19" fill="none" xmlns="http://www.w3.org/2000/svg">
<g clip-path="url(#clip0_1_118)">
<path d="M13.0796 10.1169C14.1353 10.8336 14.875 11.8045 14.875 13.099V15.4107H17.9572V13.099C17.9572 11.4192 15.2063 10.4252 13.0796 10.1169Z" fill="white"/>
<path d="M11.7924 9.24626C13.4954 9.24626 14.8747 7.86696 14.8747 6.16402C14.8747 4.46109 13.4954 3.08179 11.7924 3.08179C11.4303 3.08179 11.0912 3.15884 10.7676 3.26672C11.4071 4.0604 11.7924 5.06983 11.7924 6.16402C11.7924 7.25822 11.4071 8.26765 10.7676 9.06133C11.0912 9.1692 11.4303 9.24626 11.7924 9.24626Z" fill="white"/>
<path d="M7.16915 9.24626C8.87209 9.24626 10.2514 7.86696 10.2514 6.16402C10.2514 4.46109 8.87209 3.08179 7.16915 3.08179C5.46622 3.08179 4.08691 4.46109 4.08691 6.16402C4.08691 7.86696 5.46622 9.24626 7.16915 9.24626ZM7.16915 4.62291C8.01677 4.62291 8.71027 5.31641 8.71027 6.16402C8.71027 7.01164 8.01677 7.70514 7.16915 7.70514C6.32154 7.70514 5.62803 7.01164 5.62803 6.16402C5.62803 5.31641 6.32154 4.62291 7.16915 4.62291Z" fill="white"/>
<path d="M7.16936 10.0171C5.11196 10.0171 1.00488 11.0496 1.00488 13.0993V15.411H13.3338V13.0993C13.3338 11.0496 9.22675 10.0171 7.16936 10.0171ZM11.7927 13.8699H2.546V13.107C2.70011 12.5522 5.08885 11.5582 7.16936 11.5582C9.24987 11.5582 11.6386 12.5522 11.7927 13.0993V13.8699Z" fill="white"/>
</g>
<defs>
<clipPath id="clip0_1_118">
<rect width="18.4934" height="18.4934" fill="white" transform="translate(0.234375 0.000244141)"/>
</clipPath>
</defs>
</svg>
